Coordinates
version=1
nRows=19
nColumns=36
inDegrees=yes

Units are S.I. units (second, meters, Newtons, ...)
If the header above contains a line with 'inDegrees', this indicates whether rotational values are in degrees (yes) or radians (no).

endheader
time	pelvis_tilt	pelvis_list	pelvis_rotation	pelvis_tx	pelvis_ty	pelvis_tz	hip_flexion_r	hip_adduction_r	hip_rotation_r	knee_angle_r	knee_angle_r_beta	ankle_angle_r	subtalar_angle_r	mtp_angle_r	hip_flexion_l	hip_adduction_l	hip_rotation_l	knee_angle_l	knee_angle_l_beta	ankle_angle_l	subtalar_angle_l	mtp_angle_l	lumbar_extension	lumbar_bending	lumbar_rotation	arm_flex_r	arm_add_r	arm_rot_r	elbow_flex_r	pro_sup_r	arm_flex_l	arm_add_l	arm_rot_l	elbow_flex_l	pro_sup_l
      1.96666670	    -21.19031820	      1.72890667	      0.19070518	      0.12999222	      0.81261248	     -0.09486386	     50.18158481	    -12.70960376	     -5.49214051	     54.88371521	      0.95790154	     22.10132776	      2.43578903	     -7.49999987	     51.96090811	    -11.03187313	     -6.72330903	     56.78295423	      0.99104951	     15.41787456	      2.90669818	     -7.49999987	     -8.67100040	      0.05646800	      4.24763217	    141.80422323	    -22.47552376	     50.04800221	     92.12248116	     87.18808666	    142.05338242	    -19.24922594	     49.37056780	     97.00300574	     84.90950277
      1.97083330	    -20.73360310	      1.58457968	      0.21590699	      0.13516567	      0.82293918	     -0.09224696	     47.78298553	    -11.99421270	     -5.94321433	     52.33949999	      0.91349660	     20.98960120	      2.39095551	     -7.49999987	     49.89855303	    -11.53628015	     -7.19910809	     54.56319353	      0.95230738	     14.03287807	      3.80399215	     -7.49999987	     -8.20102949	     -0.28842650	      3.29558442	    141.13207585	    -22.81039134	     50.31709434	     91.89690221	     87.01782049	    143.33652110	    -19.75239360	     52.16449282	     95.76461476	     84.84487688
      1.97500000	    -20.79331721	      1.70487518	      0.13470160	      0.14454400	      0.82856464	     -0.09307312	     46.15849727	    -11.68364202	     -6.35410889	     50.26201435	      0.87723764	     19.71897089	      2.45771903	     -7.49999987	     48.09392933	    -11.68722169	     -7.95897602	     52.16263779	      0.91040978	     12.90188559	      4.44718770	     -7.49999987	     -6.98379376	     -0.47724636	      2.82951324	    140.75023418	    -22.86769865	     50.95651594	     91.29646611	     87.02398572	    143.17994783	    -20.65335611	     52.56973394	     94.52159473	     84.79061432
      1.97916670	    -20.42701354	      1.85616032	      0.10018472	      0.14480855	      0.83876552	     -0.09336154	     44.35043777	    -11.50702532	     -6.46365058	     48.07211046	      0.83901661	     18.45225985	      1.48606611	     -7.49999987	     46.17684231	    -11.56198783	     -8.64928757	     49.97694930	      0.87226232	     11.94057182	      4.72465034	     -7.49999987	     -6.72319390	     -0.56869979	      2.36819510	    141.17444712	    -22.53985437	     52.26380056	     90.38966274	     86.87102572	    143.15074151	    -21.81011241	     52.94374499	     93.87911987	     84.47075116
      1.98333330	    -20.17271697	      1.99291574	      0.01202778	      0.15038210	      0.84465073	     -0.08906013	     42.70951388	    -11.28148449	     -6.86065443	     45.99114945	      0.80269698	     17.73975549	      2.08630957	     -7.49999987	     44.33624054	    -11.66993893	     -9.57146396	     47.75015458	      0.83339742	     10.99292136	      5.51819213	     -7.49999987	     -6.00767820	     -0.95393950	      2.09021131	    140.97980168	    -22.22416851	     53.36497623	     89.39214715	     86.02927822	    143.18868303	    -22.30507847	     54.03828740	     93.30824692	     83.78762084
      1.98750000	    -20.05313827	      2.05201068	      0.04753598	      0.15501379	      0.85038607	     -0.09356107	     41.21314682	    -11.27237354	     -7.26790971	     44.04446337	      0.76872090	     16.96273147	      1.80868993	     -7.49999987	     42.93396538	    -11.52527888	    -10.56327024	     45.88344298	      0.80081715	     10.30893322	      5.93018122	     -7.49999987	     -5.65577058	     -0.92012080	      1.72889104	    141.93437760	    -22.22343228	     54.30078228	     87.70833454	     85.96679519	    144.57525049	    -22.82783169	     55.71819721	     91.91042864	     83.55105632
      1.99166670	    -19.87505811	      2.21697641	      0.22198447	      0.15584103	      0.85930017	     -0.09335529	     39.94896304	    -11.55999945	     -7.71329933	     42.25148128	      0.73742746	     15.45366446	      1.70467658	     -7.49999987	     40.97963776	    -11.21137789	    -12.02259657	     42.88645981	      0.74850993	      9.05488164	      7.05839638	     -7.49999987	     -5.15327875	     -1.00544311	      1.34243511	    142.11888838	    -21.99134719	     55.11117793	     86.07212807	     85.88970415	    145.02351890	    -23.01921488	     56.35122919	     89.95633862	     83.34131906
      1.99583330	    -20.00002769	      2.35618656	      0.85685766	      0.16482033	      0.87012982	     -0.10429447	     38.51389654	    -12.42475731	     -8.73397808	     39.96462022	      0.69751421	     13.28325059	      2.61009452	     -7.49999987	     39.07819239	    -10.27323486	    -13.32888358	     39.69975599	      0.69289145	      7.95938220	      8.74059423	     -7.49999987	     -4.35904725	     -0.88900670	      0.97582200	    142.15425584	    -22.39540896	     56.10845387	     85.47195469	     87.32759922	    144.59557295	    -23.44022821	     57.05307003	     89.86023467	     84.55712941
      2.00000000	    -19.01514917	      2.41896186	      1.42994729	      0.16981425	      0.88003016	     -0.10084525	     35.76934344	    -12.79142831	     -9.72242453	     37.20534328	      0.64935574	     11.62643311	      4.57944131	     -7.49999987	     36.03911522	     -9.70518776	    -14.96498147	     36.33291013	      0.63412891	      5.93590110	     10.50477023	     -7.49999987	     -4.21680148	     -0.65539963	      0.49843905	    142.33840462	    -21.96077626	     58.98758152	     81.95038294	     86.74656800	    142.67346564	    -25.13707622	     56.68995170	     90.76632518	     83.66241003
      2.00416670	    -18.77727290	      2.41678812	      1.66764065	      0.16914030	      0.88664293	     -0.10110272	     34.36852039	    -13.06159948	    -10.50708810	     35.22291886	      0.61475591	      9.23772513	      5.74112080	     -7.49999987	     34.20136108	     -9.11871713	    -16.01062865	     33.49288376	      0.58456110	      4.17601616	     11.46691631	     -7.49999987	     -3.38906043	     -0.34581312	     -0.28833560	    141.83950614	    -21.33688271	     60.90556843	     78.94258722	     85.68433018	    141.59201127	    -27.04529263	     57.10910782	     92.41056491	     82.76202742
      2.00833330	    -18.56226357	      2.49452943	      1.73372276	      0.17332480	      0.89347287	     -0.10539468	     33.10772475	    -13.21557822	    -11.11109319	     33.28509479	      0.58093450	      7.20433482	      7.09487832	     -7.49999987	     32.47693196	     -8.38372669	    -16.73435613	     30.57973190	      0.53371701	      2.04132679	     11.59926983	     -7.49999987	     -2.85713392	     -0.24645821	     -0.70478360	    141.25755868	    -20.82971689	     61.60565415	     75.32583756	     85.02798718	    141.12449597	    -26.33706625	     57.59252442	     90.23436768	     82.22731295
      2.01250000	    -18.26217262	      2.56685376	      1.40226792	      0.18123780	      0.90581341	     -0.10577074	     30.83518381	    -12.88555706	    -11.82751974	     29.85269240	      0.52102777	      4.30320235	      7.77837076	     -7.49999987	     30.16237079	     -7.76317306	    -17.41835736	     27.16995703	      0.47420521	     -0.41130802	     11.85252478	     -7.49999987	     -2.12253066	      0.00034945	     -0.79099730	    139.93929753	    -19.86638281	     62.20820465	     71.75463653	     83.80354054	    139.63630162	    -26.35491734	     57.48260550	     88.32233275	     81.27319057
      2.01666670	    -17.88933259	      2.40803325	      1.24780850	      0.19017641	      0.91508489	     -0.09788152	     27.91371608	    -11.89138588	    -12.28128191	     25.62628682	      0.44726308	      1.34170065	      8.52267755	     -7.49999987	     27.76981263	     -7.56837270	    -17.75515415	     23.79029406	      0.41521896	     -3.70730176	     11.99250861	     -7.49999987	     -1.12005957	      0.09979067	     -1.04286704	    138.70763694	    -19.10125472	     63.34581030	     69.64235472	     82.64003554	    137.65611716	    -26.78241254	     57.80943121	     88.03744355	     80.40713148
      2.02083330	    -17.50226740	      2.24606788	      1.13496684	      0.19795594	      0.92347395	     -0.09896270	     25.18601751	    -10.92005895	    -12.33728574	     21.72347556	      0.37914617	     -1.15325549	      9.18825896	     -7.49999987	     25.47989409	     -7.36407075	    -18.01477449	     20.63745720	      0.36019158	     -6.34766996	     12.42168234	     -7.49999987	      0.03039751	     -0.01139357	     -1.13578715	    137.32353748	    -19.12492883	     64.83527757	     68.16612540	     82.10005741	    136.44859630	    -27.29991274	     59.18925382	     88.14189169	     80.05531628
      2.02500000	    -17.33010993	      2.07647073	      0.82922522	      0.20205277	      0.92981354	     -0.09539187	     23.35685921	     -9.90549266	    -11.82457406	     18.79598400	      0.32805181	     -3.70609075	      9.53177739	     -7.49999987	     23.71687682	     -7.33121660	    -17.91891863	     17.67271483	      0.30844706	     -9.83740823	     12.74116244	     -7.49999987	      1.16463592	     -0.19305088	     -1.33932396	    135.91278881	    -19.35090560	     65.85323835	     67.58391280	     81.89220009	    135.54904935	    -27.63816189	     60.57009911	     88.03662266	     79.95271941
      2.02916670	    -16.73492789	      2.05541817	      0.35744888	      0.20523458	      0.93944846	     -0.09131666	     21.23057254	     -9.06721866	    -11.53559790	     15.91749868	      0.27781276	     -6.86442861	      9.82168199	     -7.49999987	     21.53942883	     -7.26245506	    -17.18886201	     14.12828259	      0.24658505	    -14.47411971	     12.95777905	     -7.49999987	      1.51571382	     -0.60413803	     -1.82445780	    134.15468540	    -18.69076411	     65.97519284	     66.05815525	     78.99096224	    135.65254857	    -27.87829350	     62.67981859	     86.94641780	     77.67336814
      2.03333330	    -16.39042343	      1.92030789	     -0.05291019	      0.20931717	      0.95563196	     -0.08721012	     19.32568931	     -8.17590538	    -11.56356004	     12.88140607	      0.22482295	    -10.41468701	     11.14139250	     -7.49999987	     19.55717542	     -7.34506415	    -16.11947773	     10.18233636	      0.17771530	    -19.95768991	     13.90438491	     -7.49999987	      2.30079384	     -0.96815010	     -2.00203646	    132.02156580	    -18.86076483	     66.25380892	     66.33500528	     78.93122797	    134.50873029	    -28.31589915	     63.23783402	     87.06934739	     77.64435073
      2.03750000	    -16.41372188	      1.86628065	     -0.45623558	      0.20805140	      0.95781083	     -0.08722365	     17.96588462	     -7.44140403	    -11.67304097	      9.52703055	      0.16627805	    -14.64593962	     11.06868102	     -7.49999987	     18.46691412	     -7.21544248	    -14.52502679	      7.17744843	      0.12527011	    -24.52434213	     13.08784033	     -7.49999987	      2.95950558	     -1.22784463	     -2.01121971	    131.28835989	    -19.01940182	     67.02442651	     66.50022853	     79.23959997	    134.57963637	    -28.68592125	     64.56336801	     86.74980941	     77.94127192
      2.04166670	    -16.29942906	      1.93730077	     -0.51997845	      0.20805671	      0.96637521	     -0.08724827	     16.37049989	     -6.96569677	    -11.76193775	      5.83809555	      0.10189399	    -19.12481611	     10.89592941	     -7.49999987	     17.67257872	     -6.89514186	    -12.86473852	      4.74657971	      0.08284344	    -29.45001823	     12.00418399	     -7.49999987	      3.13215720	     -1.88396278	     -1.63775799	    131.08069416	    -20.23936634	     68.37527222	     66.92445506	     76.72664552	    134.84266995	    -28.04258098	     65.78654776	     86.21513127	     75.48744524
